<svg width="161" height="38" viewBox="0 0 161 38" fill="none" xmlns="http://www.w3.org/2000/svg">
<path d="M0.296875 2.48438C1.29688 2.73438 2.25 2.92188 3.15625 3.04688C4.0625 3.17187 4.85938 3.26562 5.54688 3.32812C6.35938 3.42188 7.10938 3.45312 7.79688 3.42188C8.67188 3.42188 9.76562 3.34375 11.0781 3.1875C12.4219 3.03125 13.7969 2.89062 15.2031 2.76562C16.6094 2.60937 17.9531 2.51562 19.2344 2.48438C20.5469 2.42187 21.6094 2.5 22.4219 2.71875C23.2344 2.90625 24.0625 3.20313 24.9062 3.60938C25.7812 3.98438 26.5781 4.46875 27.2969 5.0625C28.0156 5.625 28.6094 6.29688 29.0781 7.07812C29.5469 7.82812 29.8125 8.6875 29.875 9.65625C29.8438 10.875 29.5625 12.0156 29.0312 13.0781C28.5938 13.9844 27.8594 14.9219 26.8281 15.8906C25.7969 16.8281 24.3125 17.5469 22.375 18.0469C23.3438 18.1719 24.1719 18.3906 24.8594 18.7031C25.5781 18.9844 26.1875 19.3281 26.6875 19.7344C27.2188 20.1094 27.6406 20.5312 27.9531 21C28.2969 21.4688 28.5625 21.9375 28.75 22.4062C29.2188 23.5 29.4375 24.7188 29.4062 26.0625C29.2188 27.8125 28.8594 29.2031 28.3281 30.2344C27.8281 31.2656 27.25 32.0625 26.5938 32.625C25.9375 33.1875 25.2656 33.5781 24.5781 33.7969C23.8906 34.0156 23.2656 34.1875 22.7031 34.3125C22.1406 34.4375 21.4531 34.5 20.6406 34.5C19.8281 34.5 18.9531 34.4844 18.0156 34.4531C17.1094 34.3906 16.1719 34.3438 15.2031 34.3125C14.2344 34.25 13.3125 34.25 12.4375 34.3125C11.7188 34.375 10.8438 34.4375 9.8125 34.5C8.9375 34.5625 7.84375 34.6406 6.53125 34.7344C5.21875 34.7969 3.6875 34.875 1.9375 34.9688C2.28125 34.7188 2.5625 34.4375 2.78125 34.125C3.03125 33.7812 3.23438 33.4844 3.39062 33.2344C3.54688 32.9219 3.6875 32.625 3.8125 32.3438C3.90625 32.0938 3.98438 31.4062 4.04688 30.2812C4.10938 29.1562 4.15625 27.8125 4.1875 26.25C4.21875 24.6562 4.23438 22.9531 4.23438 21.1406C4.26562 19.2969 4.25 17.5312 4.1875 15.8438C4.15625 14.125 4.09375 12.6094 4 11.2969C3.9375 9.95312 3.84375 8.98438 3.71875 8.39062C3.53125 7.73438 3.28125 7.0625 2.96875 6.375C2.71875 5.78125 2.35938 5.14062 1.89062 4.45312C1.45312 3.76563 0.921875 3.10938 0.296875 2.48438ZM10.1875 7.26562C10.1875 7.39062 10.2031 7.8125 10.2344 8.53125C10.2656 9.15625 10.2969 10.125 10.3281 11.4375C10.3906 12.7188 10.4688 14.5469 10.5625 16.9219C11.3438 17.2656 12.1094 17.4531 12.8594 17.4844C13.6094 17.4844 14.2812 17.4531 14.875 17.3906C15.5625 17.2969 16.2188 17.1406 16.8438 16.9219C17.6875 16.5781 18.3438 16.0156 18.8125 15.2344C19.3125 14.4531 19.6406 13.6406 19.7969 12.7969C19.9844 11.9219 20.0312 11.1094 19.9375 10.3594C19.8438 9.57812 19.6406 9.01562 19.3281 8.67188C18.7344 8.14062 18 7.70313 17.125 7.35938C16.375 7.07812 15.4219 6.89062 14.2656 6.79688C13.1406 6.67188 11.7812 6.82812 10.1875 7.26562ZM9.95312 29.4844C11.1094 30.0781 12.125 30.4688 13 30.6562C13.875 30.8438 14.6094 30.9375 15.2031 30.9375C15.8906 30.9375 16.4844 30.8438 16.9844 30.6562C17.5781 30.375 18.1562 30 18.7188 29.5312C19.3125 29.0312 19.75 28.4531 20.0312 27.7969C20.3438 27.1094 20.4688 26.3594 20.4062 25.5469C20.3438 24.7031 19.9844 23.7812 19.3281 22.7812C18.7344 22.0625 18.0156 21.5 17.1719 21.0938C16.4219 20.75 15.4688 20.5312 14.3125 20.4375C13.1875 20.3438 11.7969 20.6094 10.1406 21.2344L9.95312 29.4844ZM32.0312 15.0469L40.6562 15.1406C40.1562 17.0469 39.7812 18.6719 39.5312 20.0156C39.3125 21.3594 39.1719 22.4844 39.1094 23.3906C38.9844 24.4219 38.9531 25.2969 39.0156 26.0156C39.1094 26.6719 39.2656 27.375 39.4844 28.125C39.6719 28.75 39.9531 29.4688 40.3281 30.2812C40.7031 31.0938 41.2031 31.9062 41.8281 32.7188C41.4531 32.5938 41.0469 32.5 40.6094 32.4375C40.1719 32.375 39.7656 32.3281 39.3906 32.2969C38.9531 32.2656 38.5156 32.2656 38.0781 32.2969C37.6406 32.3281 37.1562 32.375 36.625 32.4375C36.1875 32.5 35.6562 32.5781 35.0312 32.6719C34.4062 32.7656 33.75 32.8906 33.0625 33.0469C33.5312 31.6406 33.8906 30.4219 34.1406 29.3906C34.4219 28.3594 34.625 27.5 34.75 26.8125C34.875 26 34.9531 25.3438 34.9844 24.8438C34.9844 24.2188 34.9844 23.5156 34.9844 22.7344C34.9844 21.9219 34.9844 21.1406 34.9844 20.3906C34.9844 19.6406 34.9688 18.9844 34.9375 18.4219C34.9062 17.8281 34.8438 17.4531 34.75 17.2969L34.2812 16.8281C34.0938 16.6719 33.8125 16.4531 33.4375 16.1719C33.0938 15.8594 32.625 15.4844 32.0312 15.0469ZM35.3594 7.82812C36.0156 7.48437 36.6719 7.39062 37.3281 7.54688C38.0156 7.70313 38.5469 8 38.9219 8.4375C39.2969 8.875 39.4219 9.39062 39.2969 9.98438C39.2031 10.5781 38.7031 11.1562 37.7969 11.7188C36.8906 12.25 36.0938 12.4375 35.4062 12.2812C34.7188 12.125 34.2344 11.7969 33.9531 11.2969C33.6719 10.7969 33.625 10.2188 33.8125 9.5625C34 8.875 34.5156 8.29688 35.3594 7.82812ZM42.9531 6.46875C43.8906 6.5625 44.6719 6.64062 45.2969 6.70312C45.9531 6.76563 46.4844 6.8125 46.8906 6.84375C47.3594 6.875 47.7344 6.89062 48.0156 6.89062C48.2969 6.92187 48.6719 6.92187 49.1406 6.89062C49.5469 6.85938 50.0781 6.82812 50.7344 6.79688C51.3906 6.73437 52.2188 6.64062 53.2188 6.51562C53 6.82812 52.8281 7.10937 52.7031 7.35938C52.5781 7.57812 52.4688 7.78125 52.375 7.96875L52.0938 8.53125C52.0312 8.71875 51.9688 8.90625 51.9062 9.09375C51.8438 9.25 51.7812 9.4375 51.7188 9.65625C51.6875 9.875 51.6562 10.1094 51.625 10.3594H58.8438L58.1875 14.1562L51.5781 13.7812C51.4219 15.375 51.3125 16.6094 51.25 17.4844C51.1875 18.3594 51.125 19 51.0625 19.4062L50.9688 20.25C50.875 21.4375 50.7812 22.7344 50.6875 24.1406C50.5938 25.5156 50.5625 26.7969 50.5938 27.9844C50.625 29.1719 50.7344 30.1719 50.9219 30.9844C51.1094 31.7656 51.4375 32.1562 51.9062 32.1562C52.375 32.1562 52.8125 32.0312 53.2188 31.7812C53.625 31.5312 53.9688 31.2344 54.25 30.8906C54.5625 30.5469 54.7969 30.2031 54.9531 29.8594C55.1094 29.4844 55.1875 29.2031 55.1875 29.0156C55.1875 28.8281 55.1406 28.6094 55.0469 28.3594C54.8906 27.8906 54.6094 27.2969 54.2031 26.5781C55.1094 26.7969 55.9062 27.0156 56.5938 27.2344C56.9375 27.3594 57.25 27.4844 57.5312 27.6094C57.8438 27.7344 58.2031 27.875 58.6094 28.0312C58.9531 28.1875 59.3906 28.375 59.9219 28.5938C60.4531 28.8125 61.0781 29.0781 61.7969 29.3906C61.1094 29.5156 60.6094 29.7188 60.2969 30C60.1094 30.125 59.9688 30.2656 59.875 30.4219C59.6562 30.7656 59.4062 31.2344 59.125 31.8281C58.8438 32.3906 58.4219 32.9531 57.8594 33.5156C57.2969 34.0781 56.5312 34.5781 55.5625 35.0156C54.625 35.4531 53.3594 35.7031 51.7656 35.7656C50.1094 35.8281 48.8438 35.5469 47.9688 34.9219C47.125 34.2969 46.5 33.5781 46.0938 32.7656C45.7188 31.9219 45.5 31.0938 45.4375 30.2812C45.375 29.4688 45.3281 28.9219 45.2969 28.6406C45.2656 28.3594 45.2656 27.6562 45.2969 26.5312C45.3281 25.4062 45.375 24.1719 45.4375 22.8281C45.5 21.4531 45.5625 20.1406 45.625 18.8906C45.6875 17.6094 45.7188 16.6719 45.7188 16.0781C45.7188 15.7656 45.7344 15.4375 45.7656 15.0938C45.7656 14.8125 45.7656 14.5156 45.7656 14.2031C45.7969 13.8594 45.8125 13.5312 45.8125 13.2188L39.0156 13.1719L38.7344 10.5L45.5781 10.6875C45.5156 10.3438 45.4375 10.0312 45.3438 9.75C45.2812 9.4375 45.2188 9.1875 45.1562 9C45.0625 8.78125 44.9688 8.59375 44.875 8.4375C44.75 8.28125 44.6094 8.10938 44.4531 7.92188C44.2969 7.76562 44.0938 7.5625 43.8438 7.3125C43.5938 7.0625 43.2969 6.78125 42.9531 6.46875ZM72.0625 28.4531C72.9375 28.4531 73.75 28.3594 74.5 28.1719C75.125 28.0156 75.7188 27.7656 76.2812 27.4219C76.875 27.0469 77.2656 26.5 77.4531 25.7812C78.0781 25.9062 78.6094 26.0156 79.0469 26.1094C79.4844 26.1719 79.8594 26.2344 80.1719 26.2969C80.5156 26.3906 80.8125 26.4531 81.0625 26.4844C81.3125 26.5469 81.6094 26.6094 81.9531 26.6719C82.2656 26.7344 82.6406 26.8125 83.0781 26.9062C83.5469 26.9688 84.0938 27.0625 84.7188 27.1875C84.25 27.125 83.7656 27.1719 83.2656 27.3281C82.7969 27.4844 82.3438 27.6562 81.9062 27.8438C81.4062 28.0625 80.9375 28.3281 80.5 28.6406C80.2188 28.8281 79.8906 29.1094 79.5156 29.4844C79.1719 29.8594 78.6719 30.2188 78.0156 30.5625C77.3594 30.9062 76.4844 31.2031 75.3906 31.4531C74.3281 31.6719 72.9531 31.75 71.2656 31.6875C69.2344 31.625 67.5312 31.2656 66.1562 30.6094C64.7812 29.9219 63.6719 29.0938 62.8281 28.125C61.9844 27.125 61.375 26.0469 61 24.8906C60.625 23.7344 60.4219 22.6562 60.3906 21.6562C60.3594 20.6562 60.6562 19.6094 61.2812 18.5156C61.9062 17.4219 62.7812 16.4219 63.9062 15.5156C65.0625 14.6094 66.4531 13.875 68.0781 13.3125C69.7031 12.7188 71.4844 12.4219 73.4219 12.4219C74.5469 12.4219 75.5781 12.5625 76.5156 12.8438C77.4844 13.0938 78.3594 13.4375 79.1406 13.875C79.9531 14.3125 80.6562 14.8125 81.25 15.375C81.8438 15.9062 82.3438 16.4531 82.75 17.0156C83.1562 17.6094 83.5 18.2344 83.7812 18.8906C84.0312 19.4531 84.2344 20.0938 84.3906 20.8125C84.5469 21.5312 84.5938 22.2656 84.5312 23.0156C82.1562 23.0781 80.2344 23.125 78.7656 23.1562C77.3281 23.1875 76.2031 23.2031 75.3906 23.2031H73.2812H71.6875C71.125 23.2031 70.3906 23.2188 69.4844 23.25C68.5781 23.2812 67.4688 23.3281 66.1562 23.3906C66.3125 24.6406 66.7031 25.6094 67.3281 26.2969C67.9844 26.9531 68.6719 27.4531 69.3906 27.7969C70.2031 28.1719 71.0938 28.3906 72.0625 28.4531ZM67.8438 20.0156C68.8438 20.0781 69.6719 20.125 70.3281 20.1562C71.0156 20.1875 71.5781 20.2188 72.0156 20.25C72.4844 20.2812 72.8594 20.2969 73.1406 20.2969H74.3125C75.0938 20.2969 76.5469 20.25 78.6719 20.1562C78.5781 18.7812 78.2812 17.7344 77.7812 17.0156C77.3125 16.2969 76.8125 15.7656 76.2812 15.4219C75.6562 15.0469 74.9688 14.8281 74.2188 14.7656C72.1875 14.7969 70.6719 15.2188 69.6719 16.0312C68.7031 16.8438 68.0938 18.1719 67.8438 20.0156Z" fill="#17DC42"/>
<path d="M95.6406 2.4375C96.8281 2.71875 97.8906 2.9375 98.8281 3.09375C99.7969 3.21875 100.609 3.3125 101.266 3.375C102.047 3.46875 102.734 3.5 103.328 3.46875C104.078 3.4375 105.016 3.32812 106.141 3.14062C107.266 2.95312 108.453 2.76562 109.703 2.57812C110.953 2.39062 112.188 2.23437 113.406 2.10938C114.625 1.98438 115.688 1.96875 116.594 2.0625C117.5 2.15625 118.453 2.375 119.453 2.71875C120.453 3.03125 121.391 3.46875 122.266 4.03125C123.141 4.5625 123.891 5.21875 124.516 6C125.172 6.78125 125.578 7.6875 125.734 8.71875C125.891 9.71875 125.797 10.7969 125.453 11.9531C125.109 13.0781 124.562 14.1875 123.812 15.2812C123.062 16.3438 122.125 17.3281 121 18.2344C119.875 19.1406 118.625 19.875 117.25 20.4375C116.156 20.8438 114.969 21.1562 113.688 21.375C112.594 21.5625 111.312 21.6875 109.844 21.75C108.406 21.7812 106.875 21.625 105.25 21.2812C105.031 22.1875 104.906 23.0312 104.875 23.8125C104.875 24.5625 104.906 25.2344 104.969 25.8281C105.062 26.5156 105.188 27.1406 105.344 27.7031C105.531 28.2656 105.766 28.9219 106.047 29.6719C106.297 30.2969 106.578 31.0625 106.891 31.9688C107.234 32.8438 107.641 33.8281 108.109 34.9219C107.547 34.9219 107 34.9375 106.469 34.9688C105.938 34.9688 105.453 34.9844 105.016 35.0156C104.516 35.0469 104.047 35.0781 103.609 35.1094C103.109 35.1406 102.547 35.2031 101.922 35.2969C101.391 35.3594 100.719 35.4531 99.9062 35.5781C99.125 35.7031 98.2344 35.8594 97.2344 36.0469C97.8906 35.1094 98.4062 34.25 98.7812 33.4688C99.1875 32.6562 99.4844 31.9531 99.6719 31.3594C99.8906 30.6719 100.031 30.0469 100.094 29.4844C100.125 29.0156 100.125 28.1875 100.094 27C100.094 25.8125 100.078 24.4375 100.047 22.875C100.016 21.3125 99.9688 19.6719 99.9062 17.9531C99.8438 16.2344 99.7656 14.625 99.6719 13.125C99.5781 11.5938 99.4688 10.2812 99.3438 9.1875C99.25 8.09375 99.1562 7.375 99.0625 7.03125C98.9375 6.625 98.7188 6.1875 98.4062 5.71875C98.1562 5.3125 97.7969 4.84375 97.3281 4.3125C96.8906 3.75 96.3281 3.125 95.6406 2.4375ZM105.344 11.6719C105.312 11.9844 105.297 12.3125 105.297 12.6562C105.297 13.3125 105.344 14.1562 105.438 15.1875C105.656 15.7188 105.922 16.1562 106.234 16.5C106.578 16.8438 106.938 17.1094 107.312 17.2969C107.719 17.4844 108.125 17.6094 108.531 17.6719C108.938 17.7344 109.344 17.7656 109.75 17.7656C110.688 17.7344 111.672 17.5156 112.703 17.1094C114.078 16.5156 115.047 15.6719 115.609 14.5781C116.172 13.4844 116.469 12.3594 116.5 11.2031C116.531 10.0469 116.328 8.98438 115.891 8.01562C115.484 7.04688 114.984 6.39063 114.391 6.04688C113.891 5.82813 113.25 5.73438 112.469 5.76562C111.781 5.79687 110.922 5.96875 109.891 6.28125C108.859 6.59375 107.594 7.15625 106.094 7.96875C105.938 8.53125 105.812 9.03125 105.719 9.46875C105.625 9.90625 105.547 10.2969 105.484 10.6406C105.422 11.0156 105.375 11.3594 105.344 11.6719ZM129.531 17.0156C129.688 16.8281 129.781 16.4844 129.812 15.9844C129.875 15.4531 130 14.8594 130.188 14.2031C130.406 13.5469 130.766 12.8594 131.266 12.1406C131.766 11.4219 132.578 10.75 133.703 10.125C134.797 9.5 135.859 9.125 136.891 9C137.922 8.875 138.906 8.92188 139.844 9.14062C140.781 9.35938 141.656 9.70312 142.469 10.1719C143.312 10.6406 144.078 11.1562 144.766 11.7188C145.234 12.0938 145.609 12.6406 145.891 13.3594C146.172 14.0469 146.391 14.8281 146.547 15.7031C146.703 16.5781 146.812 17.5 146.875 18.4688C146.969 19.4062 147.031 20.3281 147.062 21.2344C147.094 22.1094 147.109 22.9219 147.109 23.6719C147.141 24.3906 147.203 24.9844 147.297 25.4531C147.422 26.1406 147.641 26.7344 147.953 27.2344C148.266 27.7031 148.609 28.1094 148.984 28.4531C149.359 28.7656 149.734 29.0156 150.109 29.2031C150.484 29.3906 150.812 29.5312 151.094 29.625C151.281 29.7188 151.453 29.7812 151.609 29.8125C151.922 29.9375 152.141 29.9375 152.266 29.8125C152.078 30.25 151.906 30.625 151.75 30.9375C151.594 31.25 151.469 31.5156 151.375 31.7344C151.25 31.9844 151.141 32.1875 151.047 32.3438C150.953 32.5312 150.844 32.7031 150.719 32.8594C150.625 33.0156 150.5 33.1875 150.344 33.375C150.188 33.5625 150.031 33.7656 149.875 33.9844C149.469 33.8281 149.078 33.6406 148.703 33.4219C148.359 33.2031 148.047 33 147.766 32.8125C147.422 32.5938 147.109 32.375 146.828 32.1562C146.547 31.9375 146.281 31.6875 146.031 31.4062C145.812 31.1562 145.578 30.8906 145.328 30.6094C145.109 30.3281 144.922 30.0156 144.766 29.6719C144.578 30.0781 144.125 30.6562 143.406 31.4062C142.719 32.1562 141.812 32.8438 140.688 33.4688C139.562 34.0625 138.25 34.4844 136.75 34.7344C135.281 34.9844 133.656 34.8125 131.875 34.2188C131.094 33.9688 130.359 33.6094 129.672 33.1406C128.984 32.6406 128.391 32.0469 127.891 31.3594C127.422 30.6719 127.078 29.8906 126.859 29.0156C126.672 28.1094 126.688 27.1094 126.906 26.0156C127.125 24.9219 127.516 24 128.078 23.25C128.641 22.5 129.312 21.8906 130.094 21.4219C130.875 20.9531 131.75 20.5938 132.719 20.3438C133.688 20.0938 134.688 19.9219 135.719 19.8281C136.531 19.7969 137.344 19.8438 138.156 19.9688C138.844 20.0938 139.562 20.3281 140.312 20.6719C141.062 20.9844 141.703 21.4688 142.234 22.125C142.203 20.4688 142.141 19.1562 142.047 18.1875C141.984 17.1875 141.922 16.4219 141.859 15.8906C141.734 15.2656 141.625 14.8281 141.531 14.5781C141.375 14.3594 141.203 14.1094 141.016 13.8281C140.859 13.5469 140.656 13.2969 140.406 13.0781C140.156 12.8281 139.844 12.625 139.469 12.4688C139.094 12.3125 138.656 12.25 138.156 12.2812C137.625 12.3125 137.203 12.4531 136.891 12.7031C136.578 12.9531 136.328 13.25 136.141 13.5938C135.984 13.9062 135.891 14.25 135.859 14.625C135.828 15 135.844 15.3281 135.906 15.6094C135.969 15.7969 136.062 16 136.188 16.2188C136.312 16.4062 136.484 16.6094 136.703 16.8281C136.922 17.0469 137.219 17.2344 137.594 17.3906C136.875 17.4844 136.234 17.5625 135.672 17.625C135.109 17.6562 134.625 17.7031 134.219 17.7656C133.75 17.8281 133.344 17.875 133 17.9062C132.656 17.9375 132.25 18 131.781 18.0938C131.375 18.1562 130.875 18.2344 130.281 18.3281C129.688 18.4219 129 18.5469 128.219 18.7031C128.406 18.4844 128.578 18.2812 128.734 18.0938C128.891 17.875 129.031 17.6875 129.156 17.5312C129.281 17.3438 129.406 17.1719 129.531 17.0156ZM136.562 22.5938C136 22.625 135.438 22.7656 134.875 23.0156C134.312 23.2344 133.812 23.5625 133.375 24C132.938 24.4062 132.562 24.8906 132.25 25.4531C131.969 25.9844 131.828 26.5781 131.828 27.2344C131.828 27.8906 131.984 28.4688 132.297 28.9688C132.641 29.4375 133.078 29.8281 133.609 30.1406C134.172 30.4531 134.766 30.6406 135.391 30.7031C136.047 30.7656 136.688 30.7031 137.312 30.5156C137.906 30.2969 138.469 29.9531 139 29.4844C139.531 28.9844 139.984 28.4531 140.359 27.8906C140.734 27.2969 141 26.7188 141.156 26.1562C141.312 25.5625 141.328 25.0781 141.203 24.7031C140.953 23.8906 140.391 23.3281 139.516 23.0156C138.641 22.6719 137.656 22.5312 136.562 22.5938ZM152.875 37.3125C153.188 36.8438 153.438 36.4062 153.625 36C153.812 35.5938 153.969 35.25 154.094 34.9688C154.219 34.625 154.312 34.3125 154.375 34.0312C154.406 33.8438 154.422 33.2969 154.422 32.3906C154.422 31.4844 154.391 30.3438 154.328 28.9688C154.297 27.5938 154.25 26.0469 154.188 24.3281C154.156 22.6094 154.094 20.8594 154 19.0781C153.938 17.2969 153.859 15.5625 153.766 13.875C153.703 12.1875 153.641 10.6719 153.578 9.32812C153.516 7.95312 153.453 6.82812 153.391 5.95312C153.328 5.07813 153.281 4.57812 153.25 4.45312C153.188 4.26562 153.078 4.07812 152.922 3.89062C152.609 3.51562 152.078 3.15625 151.328 2.8125C152.922 2.40625 154.141 2.07813 154.984 1.82812C155.484 1.70313 155.922 1.57812 156.297 1.45312C156.641 1.32813 156.984 1.20312 157.328 1.07812C157.609 0.953125 157.922 0.8125 158.266 0.65625C158.609 0.46875 158.922 0.265625 159.203 0.046875C159.047 0.953125 158.922 1.82812 158.828 2.67188C158.734 3.51562 158.656 4.29687 158.594 5.01562C158.531 5.82813 158.5 6.60938 158.5 7.35938C158.344 8.89062 158.25 10.5625 158.219 12.375C158.219 14.1562 158.234 15.9688 158.266 17.8125C158.297 19.6562 158.359 21.4531 158.453 23.2031C158.547 24.9531 158.641 26.5469 158.734 27.9844C158.859 29.3906 158.969 30.5938 159.062 31.5938C159.188 32.5625 159.281 33.1875 159.344 33.4688C159.469 33.9375 159.594 34.3906 159.719 34.8281C159.844 35.2031 159.984 35.5938 160.141 36C160.297 36.4375 160.484 36.7812 160.703 37.0312H156.156C155.75 37.0312 155.359 37.0469 154.984 37.0781C154.641 37.1094 154.281 37.1406 153.906 37.1719C153.531 37.2031 153.188 37.25 152.875 37.3125Z" fill="#EEBF19"/>
</svg>
